<svg width="112" height="25" viewBox="0 0 112 25" fill="none" xmlns="http://www.w3.org/2000/svg">
<path d="M0.22998 22.02H2.32998V5.04002H0.22998V3.06002H9.43998V5.04002H7.18998V21.84H12.89V17.82H16.37V24H0.22998V22.02Z" fill="white"/>
<path d="M22.7635 6.21002C21.9235 6.21002 21.2635 5.98002 20.7835 5.52002C20.3235 5.06002 20.0935 4.44002 20.0935 3.66002V3.51002C20.0935 2.73002 20.3235 2.11002 20.7835 1.65002C21.2635 1.19002 21.9235 0.960022 22.7635 0.960022C23.6035 0.960022 24.2535 1.19002 24.7135 1.65002C25.1935 2.11002 25.4335 2.73002 25.4335 3.51002V3.66002C25.4335 4.44002 25.1935 5.06002 24.7135 5.52002C24.2535 5.98002 23.6035 6.21002 22.7635 6.21002ZM18.7135 22.02H20.5135V11.31L18.7135 10.92V9.21002L25.0735 7.92002V22.02H26.8735V24H18.7135V22.02Z" fill="white"/>
<path d="M38.5423 24.36C37.0423 24.36 35.7123 24.09 34.5523 23.55C33.4123 22.99 32.4423 22.23 31.6423 21.27C30.8423 20.29 30.2323 19.14 29.8123 17.82C29.4123 16.5 29.2123 15.08 29.2123 13.56C29.2123 11.8 29.4523 10.24 29.9323 8.88002C30.4323 7.52002 31.0923 6.39002 31.9123 5.49002C32.7323 4.57002 33.6823 3.88002 34.7623 3.42002C35.8623 2.94002 37.0023 2.70002 38.1823 2.70002C38.8223 2.70002 39.3823 2.77002 39.8623 2.91002C40.3623 3.03002 40.7923 3.19002 41.1523 3.39002C41.5123 3.59002 41.8123 3.82002 42.0523 4.08002C42.2923 4.32002 42.4723 4.56002 42.5923 4.80002H42.7723V3.06002H46.2523V9.72002H42.7723V8.37002C42.7723 7.35002 42.4323 6.53002 41.7523 5.91002C41.0923 5.29002 40.1223 4.98002 38.8423 4.98002C37.5023 4.98002 36.4523 5.40002 35.6923 6.24002C34.9323 7.08002 34.5523 8.40002 34.5523 10.2V16.29C34.5523 17.23 34.6723 18.03 34.9123 18.69C35.1523 19.35 35.4823 19.9 35.9023 20.34C36.3423 20.78 36.8523 21.1 37.4323 21.3C38.0323 21.5 38.6823 21.6 39.3823 21.6C40.6623 21.6 41.7423 21.27 42.6223 20.61C43.5223 19.93 44.2023 19.02 44.6623 17.88L46.3723 18.87C46.1123 19.63 45.7423 20.35 45.2623 21.03C44.7823 21.69 44.2023 22.27 43.5223 22.77C42.8623 23.27 42.1123 23.66 41.2723 23.94C40.4323 24.22 39.5223 24.36 38.5423 24.36Z" fill="white"/>
<path d="M53.1605 24.36C51.4605 24.36 50.2205 23.97 49.4405 23.19C48.6805 22.39 48.3005 21.28 48.3005 19.86C48.3005 16.76 50.5905 15.21 55.1705 15.21H57.2705V13.5C57.2705 12.28 57.0405 11.36 56.5805 10.74C56.1205 10.12 55.3205 9.81002 54.1805 9.81002C53.7605 9.81002 53.4005 9.84002 53.1005 9.90002C52.8005 9.96002 52.5405 10.04 52.3205 10.14V10.29C52.5205 10.39 52.7105 10.57 52.8905 10.83C53.0905 11.09 53.1905 11.44 53.1905 11.88C53.1905 12.48 53.0005 12.99 52.6205 13.41C52.2405 13.81 51.6705 14.01 50.9105 14.01C50.3105 14.01 49.8105 13.8 49.4105 13.38C49.0105 12.96 48.8105 12.43 48.8105 11.79C48.8105 11.31 48.9505 10.84 49.2305 10.38C49.5105 9.90002 49.9305 9.48002 50.4905 9.12002C51.0505 8.76002 51.7405 8.47002 52.5605 8.25002C53.4005 8.03002 54.3605 7.92002 55.4405 7.92002C57.6205 7.92002 59.2305 8.39002 60.2705 9.33002C61.3105 10.25 61.8305 11.56 61.8305 13.26V22.02H63.6305V23.73C63.2905 23.93 62.8505 24.08 62.3105 24.18C61.7705 24.3 61.2105 24.36 60.6305 24.36C59.5305 24.36 58.7505 24.11 58.2905 23.61C57.8505 23.09 57.6305 22.45 57.6305 21.69V21.63H57.4505C57.3105 21.97 57.1305 22.3 56.9105 22.62C56.7105 22.94 56.4405 23.23 56.1005 23.49C55.7805 23.75 55.3805 23.96 54.9005 24.12C54.4205 24.28 53.8405 24.36 53.1605 24.36ZM54.8705 21.66C55.6105 21.66 56.1905 21.49 56.6105 21.15C57.0505 20.81 57.2705 20.22 57.2705 19.38V17.01H55.6505C54.6905 17.01 53.9705 17.21 53.4905 17.61C53.0305 18.01 52.8005 18.58 52.8005 19.32V19.8C52.8005 20.44 52.9905 20.91 53.3705 21.21C53.7505 21.51 54.2505 21.66 54.8705 21.66Z" fill="white"/>
<path d="M73.2692 24.36C72.0092 24.36 70.8992 24.15 69.9392 23.73C68.9992 23.31 68.1992 22.73 67.5392 21.99C66.8992 21.25 66.4092 20.38 66.0692 19.38C65.7492 18.38 65.5892 17.29 65.5892 16.11C65.5892 14.79 65.7992 13.63 66.2192 12.63C66.6392 11.61 67.2092 10.75 67.9292 10.05C68.6692 9.35002 69.5292 8.82002 70.5092 8.46002C71.5092 8.10002 72.5792 7.92002 73.7192 7.92002C75.5592 7.92002 76.9692 8.30002 77.9492 9.06002C78.9492 9.82002 79.4492 10.78 79.4492 11.94C79.4492 12.7 79.2392 13.31 78.8192 13.77C78.3992 14.21 77.8192 14.43 77.0792 14.43C76.3392 14.43 75.7692 14.24 75.3692 13.86C74.9692 13.46 74.7692 12.94 74.7692 12.3C74.7692 11.78 74.8992 11.35 75.1592 11.01C75.4392 10.67 75.7492 10.42 76.0892 10.26V10.08C75.8892 10.02 75.6492 9.96002 75.3692 9.90002C75.1092 9.84002 74.7492 9.81002 74.2892 9.81002C73.0692 9.81002 72.1192 10.2 71.4392 10.98C70.7592 11.74 70.4192 12.84 70.4192 14.28V17.4C70.4192 18.72 70.7292 19.73 71.3492 20.43C71.9692 21.11 72.8292 21.45 73.9292 21.45C75.0492 21.45 75.9392 21.19 76.5992 20.67C77.2592 20.15 77.7292 19.54 78.0092 18.84L79.6892 19.83C79.5092 20.33 79.2492 20.85 78.9092 21.39C78.5892 21.93 78.1692 22.42 77.6492 22.86C77.1292 23.3 76.5092 23.66 75.7892 23.94C75.0692 24.22 74.2292 24.36 73.2692 24.36Z" fill="white"/>
<path d="M82.5439 10.26H81.1339V8.28002H88.8439V10.26H87.1639L89.4139 19.44H89.5939L92.7139 8.28002H96.3139L99.8239 19.47H100.004L102.164 10.26H100.214V8.28002H105.914V10.26H104.504L100.454 24H97.1239L93.6439 13.05H93.4639L89.9239 24H86.5939L82.5439 10.26Z" fill="white"/>
<path d="M108.669 24.36C107.789 24.36 107.119 24.11 106.659 23.61C106.199 23.09 105.969 22.47 105.969 21.75V21.63C105.969 20.91 106.199 20.3 106.659 19.8C107.119 19.28 107.789 19.02 108.669 19.02C109.549 19.02 110.219 19.28 110.679 19.8C111.139 20.3 111.369 20.91 111.369 21.63V21.75C111.369 22.47 111.139 23.09 110.679 23.61C110.219 24.11 109.549 24.36 108.669 24.36Z" fill="white"/>
</svg>
