<svg width="97" height="25" viewBox="0 0 97 25" fill="none" xmlns="http://www.w3.org/2000/svg">
<path d="M0 0.313714H0.453143C0.429905 0.313714 1.54533 0.336953 3.79943 0.38343C5.72819 0.406668 7.79638 0.406668 10.004 0.38343L13.8034 0.313714H14.2914V2.82343H9.58571V21.716H11.0846C12.1535 21.716 12.7926 21.6928 13.0017 21.6463C13.9545 21.5301 14.8143 21.2164 15.5811 20.7051C16.9987 19.7291 17.8933 18.1025 18.2651 15.8251C18.451 14.8027 18.544 14.1404 18.544 13.8383C18.544 13.815 18.9623 13.8034 19.7989 13.8034H21.0537V13.9777C21.0072 14.0939 20.833 15.767 20.5309 18.9971C20.1823 22.3202 19.9964 24.005 19.9731 24.0514V24.2257H0V21.716H3.76457V2.82343H0V0.313714Z" fill="white"/>
<path d="M27.7248 0.0348588C27.7712 0.0116196 27.9804 0 28.3522 0C28.7472 0.046477 29.0029 0.0813344 29.1191 0.104572C30.0253 0.38343 30.676 0.917906 31.0711 1.708C31.2802 2.14952 31.3848 2.57943 31.3848 2.99771C31.3848 3.43924 31.2802 3.86914 31.0711 4.28743C30.676 5.10076 30.0253 5.64686 29.1191 5.92571C28.9099 5.97219 28.6194 5.99543 28.2476 5.99543C27.8526 5.99543 27.5621 5.97219 27.3762 5.92571C26.4467 5.64686 25.7844 5.10076 25.3893 4.28743C25.2034 3.91562 25.1105 3.48572 25.1105 2.99771C25.1105 2.67238 25.1221 2.44 25.1453 2.30057C25.2615 1.88229 25.4707 1.48724 25.7728 1.11543C26.2608 0.534477 26.9114 0.174287 27.7248 0.0348588ZM27.4808 8.67943C29.8046 8.58648 30.92 8.54 30.8271 8.54H31.0362V21.716H33.1973V24.2257H32.8836L30.6528 24.156C29.3747 24.1328 28.0501 24.1328 26.6791 24.156L24.3088 24.2257H23.9951V21.716H26.4002V16.9406C26.4002 13.7105 26.3886 12.049 26.3653 11.956C26.2724 11.6771 26.1213 11.5145 25.9122 11.468C25.5869 11.375 25.1221 11.3286 24.5179 11.3286H24.0996V8.81886H24.2042L27.4808 8.67943Z" fill="white"/>
<path d="M38.5422 0.174286C40.866 0.0813344 42.0047 0.0348588 41.9582 0.0348588H42.1673V21.716H44.5725V24.2257H44.2588L41.8885 24.156C40.5174 24.1328 39.158 24.1328 37.8102 24.156L35.4399 24.2257H35.1262V21.716H37.5313V12.6531C37.5313 6.61124 37.5081 3.53219 37.4616 3.416C37.3919 3.18362 37.2409 3.03257 37.0085 2.96286C36.6831 2.86991 36.2068 2.82343 35.5793 2.82343H35.1262V0.313714H35.2308C35.1146 0.313714 36.2184 0.267238 38.5422 0.174286Z" fill="white"/>
<path d="M54.2745 8.47029L56.4008 8.50514C59.84 8.90019 62.1289 10.4804 63.2676 13.2457C63.3373 13.4084 63.407 13.5827 63.4768 13.7686C63.7556 14.6051 63.9067 15.465 63.9299 16.348C63.9764 18.207 63.5116 19.8105 62.5356 21.1583C62.0244 21.9251 61.3272 22.5642 60.4442 23.0754C59.8632 23.4705 59.0615 23.8074 58.039 24.0863C57.2025 24.2954 56.2032 24.4 55.0413 24.4C53.8794 24.4 52.8802 24.2954 52.0436 24.0863C51.0211 23.8074 50.2194 23.4705 49.6385 23.0754C48.7554 22.5642 48.0583 21.9251 47.547 21.1583C46.9429 20.2985 46.5246 19.2992 46.2922 18.1606C45.8739 15.9065 46.269 13.8499 47.4773 11.9909C47.6168 11.7352 47.7794 11.5029 47.9653 11.2937C49.3131 9.69029 51.2419 8.76076 53.7516 8.50514C53.891 8.4819 54.0653 8.47029 54.2745 8.47029ZM56.087 10.6663C55.5293 10.5733 54.96 10.5501 54.379 10.5966C53.4728 10.736 52.8105 11.0149 52.3922 11.4331C51.9274 11.8514 51.6486 12.5486 51.5556 13.5246C51.5091 14.0126 51.4859 14.733 51.4859 15.6857C51.4627 18.149 51.5789 19.7408 51.8345 20.4611C52.1598 21.2977 52.915 21.8438 54.1002 22.0994C54.6347 22.1924 55.2621 22.1924 55.9825 22.0994C56.7029 21.96 57.2606 21.6928 57.6556 21.2977C58.1204 20.8562 58.3992 20.101 58.4922 19.032C58.5154 18.7764 58.5387 18.4859 58.5619 18.1606L58.527 13.8034C58.527 13.7337 58.527 13.6872 58.527 13.664C58.4109 12.595 58.132 11.8514 57.6905 11.4331C57.3187 11.0613 56.7842 10.8057 56.087 10.6663Z" fill="white"/>
<path d="M69.5487 8.67943C71.826 8.58648 72.9299 8.54 72.8601 8.54H73.0693V11.1194L73.3481 10.8406C73.9291 10.2364 74.6262 9.74838 75.4396 9.37657C76.1135 9.00476 76.9036 8.74914 77.8098 8.60971C78.3908 8.51676 79.1925 8.50514 80.215 8.57486C80.3079 8.5981 80.3893 8.60971 80.459 8.60971C82.2483 8.81886 83.4567 9.5741 84.0841 10.8754C84.2236 11.1543 84.3514 11.5842 84.4676 12.1651C84.514 12.4208 84.5489 14.0823 84.5721 17.1497V21.716H86.9773V24.2257H86.6636L84.2236 24.156C82.8293 24.1328 81.435 24.1328 80.0407 24.156C78.414 24.2025 77.6123 24.2257 77.6356 24.2257H77.3219V21.716H79.727V17.3589C79.727 14.3379 79.7154 12.7577 79.6921 12.6183C79.5759 11.4331 79.0763 10.7825 78.1933 10.6663C78.0306 10.6663 77.8447 10.6663 77.6356 10.6663C76.5201 10.736 75.5674 11.1659 74.7773 11.956C74.2196 12.5137 73.8478 13.1295 73.6619 13.8034C73.5224 14.1985 73.4527 15.1977 73.4527 16.8011C73.4527 17.08 73.4527 17.568 73.4527 18.2651V21.716H75.8578V24.2257H75.5441L73.1041 24.156C71.7098 24.1328 70.3156 24.1328 68.9213 24.156C67.2946 24.2025 66.4929 24.2257 66.5161 24.2257H66.2024V21.716H68.6076V16.9057C68.6076 13.6989 68.5843 12.0373 68.5379 11.9211C68.4681 11.6888 68.3171 11.5377 68.0847 11.468C67.7594 11.375 67.283 11.3286 66.6556 11.3286H66.2024V8.81886H66.307C66.1908 8.81886 67.2714 8.77238 69.5487 8.67943Z" fill="white"/>
<path d="M92.3338 17.9514C92.45 17.9282 92.6708 17.9166 92.9961 17.9166C93.7165 17.9398 94.3556 18.1838 94.9133 18.6486C95.2154 18.881 95.4594 19.1714 95.6453 19.52C96.2495 20.5657 96.2495 21.6114 95.6453 22.6571C95.4594 22.9825 95.2154 23.2613 94.9133 23.4937C94.6344 23.7493 94.2394 23.9585 93.7281 24.1211C93.5422 24.1676 93.275 24.1909 92.9264 24.1909C92.5546 24.1909 92.2757 24.1676 92.0898 24.1211C91.4392 23.9352 90.9047 23.5983 90.4864 23.1103C89.6498 22.0646 89.4988 20.9491 90.0333 19.764C90.1495 19.5084 90.3005 19.2644 90.4864 19.032C90.7188 18.7764 91.0209 18.5324 91.3927 18.3C91.6948 18.1606 92.0085 18.0444 92.3338 17.9514Z" fill="white"/>
</svg>
